# xmcd
# 
# Track frame offsets:
#     150
#     17205
#     33250
# 
# Disc length: 623
# 
# Revision: 2
# Processed by: cddbd v1.5.2PL0 Copyright (c) Steve Scherf et al.
# Submitted via: fre:ac v1.0.27
# 
DISCID=1a026d03
DTITLE=Tol and Tol - Eleni
DYEAR=1989
DGENRE=
TTITLE0=Eleni
TTITLE1=Beyond Borders
TTITLE2=Song For Soprano
EXTD=YEAR: 1989
EXTT0=
EXTT1=
EXTT2=
PLAYORDER=
